<?xml version="1.0" standalone="yes"?>
<svg xmlns="http://www.w3.org/2000/svg" width="512" height="512">
<path style="fill:#010101; stroke:none;" d="M0 0L0 512L512 512L512 0L0 0z"/>
<path style="fill:#406f91; stroke:none;" d="M103 63C105.696 66.8191 111.618 66.7856 116 67.5756C127.889 69.7192 140.011 72.2922 152 73.7068C162.433 74.9378 174.592 71.4012 185 70.1551C212.576 66.8535 240.138 61.8192 268 63.0394C279.259 63.5324 293.186 64.1515 303.996 67.419C308.438 68.7614 312.213 73.3937 309.242 77.8912C306.118 82.6223 300.832 81.9073 296 81.2816C284.346 79.7725 272.625 79.0675 261 77.7145C248.094 76.2124 233.859 78.8211 221 80.5764C201.131 83.2887 180.985 86.4228 161 88L161 119L351 119L351 88C345.985 87.6042 338.27 87.7742 334.228 84.436C329.548 80.5703 331.209 73.7363 337.005 72.179C343.254 70.5 350.672 73.5739 357 73.7407C368.36 74.0401 380.808 69.9341 392 68.0803C397.449 67.1777 404.398 67.162 409 64C374.228 48.5866 334.433 39.2554 298 28.2801C285.765 24.5943 267.752 14.3235 255 15.419C242.52 16.4911 228.994 23.6669 217 27.2801C179.296 38.6382 141.549 55.0222 103 63z"/>
<path style="fill:#efc879; stroke:none;" d="M93 133L93 146L110 146L110 133L93 133z"/>
<path style="fill:#406f91; stroke:none;" d="M167 134L167 158L168 158L167 134z"/>
<path style="fill:#efc879; stroke:none;" d="M168 134L168 158C185.491 157.998 185 148.972 185 134L168 134z"/>
<path style="fill:#406f91; stroke:none;" d="M185 134L185 149L186 149L185 134z"/>
<path style="fill:#a28c7f; stroke:none;" d="M200 134L200 151L201 151L200 134z"/>
<path style="fill:#fcdcd1; stroke:none;" d="M201 134C201 149.034 200.653 166.875 183 172.2C178.275 173.625 172.88 173 168 173C168 178.533 165.828 189.885 169.028 194.567C172.512 199.666 180.291 198.039 183.297 205.004C188.553 217.181 187.463 230.106 195.09 242C216.362 275.171 261.87 285.157 295 263.91C308.517 255.241 319.303 241.344 324.112 226C326.21 219.304 325.792 211.31 328.653 205.001C331.759 198.151 337.931 199.674 342.258 195.262C346.337 191.101 344 178.463 344 173C339.1 173 333.757 173.585 329 172.211C311.23 167.075 311 148.956 311 134L201 134z"/>
<path style="fill:#a28c7f; stroke:none;" d="M311 134L311 151L312 151L311 134z"/>
<path style="fill:#406f91; stroke:none;" d="M326 134L326 149L327 149L326 134z"/>
<path style="fill:#efc879; stroke:none;" d="M327 134C327 148.886 326.52 157.988 344 158L344 134L327 134z"/>
<path style="fill:#406f91; stroke:none;" d="M344 134L344 158L345 158L344 134z"/>
<path style="fill:#a28c7f; stroke:none;" d="M93 146L93 147L110 147L93 146z"/>
<path style="fill:#efc879; stroke:none;" d="M200 151L201 152L200 151M311.333 151.667L311.667 152.333L311.333 151.667z"/>
<path style="fill:#a28c7f; stroke:none;" d="M184 152L185 153L184 152M327 152L328 153L327 152z"/>
<path style="fill:#406f91; stroke:none;" d="M183 154L184 155L183 154M199 154L200 155L199 154M312 154L313 155L312 154M328 154L329 155L328 154M182 155L183 156L182 155z"/>
<path style="fill:#a28c7f; stroke:none;" d="M199 155L200 156L199 155M312 155L313 156L312 155z"/>
<path style="fill:#406f91; stroke:none;" d="M329 155L330 156L329 155M181 156L182 157L181 156z"/>
<path style="fill:#efc879; stroke:none;" d="M199 156L200 157L199 156M312 156L313 157L312 156z"/>
<path style="fill:#406f91; stroke:none;" d="M330 156L331 157L330 156z"/>
<path style="fill:#a28c7f; stroke:none;" d="M178 157L179 158L178 157z"/>
<path style="fill:#406f91; stroke:none;" d="M179 157L180 158L179 157M198 157L199 158L198 157M313 157L314 158L313 157M332 157L333 158L332 157z"/>
<path style="fill:#a28c7f; stroke:none;" d="M333.667 157.333L334.333 157.667L333.667 157.333M198 158L199 159L198 158M313 158L314 159L313 158M197 160L198 161L197 160M314 160L315 161L314 160z"/>
<path style="fill:#406f91; stroke:none;" d="M92 161L92 162L111 164C111.803 159.128 95.6015 161 92 161M196 161L197 162L196 161z"/>
<path style="fill:#fcdcd1; stroke:none;" d="M92 162C90.3856 174.708 87.8595 187.362 85.7531 200C85.1029 203.901 82.4152 210.893 83.7739 214.682C84.7648 217.445 88.678 216.983 91 216.999C95.7387 217.032 117.41 219.687 119.227 214.682C120.623 210.835 118.074 203.939 117.414 200C115.293 187.354 112.616 174.718 111 162L92 162z"/>
<path style="fill:#efc879; stroke:none;" d="M196 162L197 163L196 162M315 162L316 163L315 162z"/>
<path style="fill:#406f91; stroke:none;" d="M91.3333 163.667L91.6667 164.333L91.3333 163.667z"/>
<path style="fill:#a28c7f; stroke:none;" d="M195 163L196 164L195 163M316 163L317 164L316 163M111 164L112 165L111 164z"/>
<path style="fill:#406f91; stroke:none;" d="M194 164L195 165L194 164M317 164L318 165L317 164z"/>
<path style="fill:#a28c7f; stroke:none;" d="M91 165L92 166L91 165z"/>
<path style="fill:#efc879; stroke:none;" d="M111 165L112 166L111 165z"/>
<path style="fill:#406f91; stroke:none;" d="M193 165L194 166L193 165M318 165L319 166L318 165M192 166L193 167L192 166M319 166L320 167L319 166M191 167L192 168L191 167M320 167L321 168L320 167M112.333 168.667L112.667 169.333L112.333 168.667z"/>
<path style="fill:#a28c7f; stroke:none;" d="M190 168L191 169L190 168M321 168L322 169L321 168z"/>
<path style="fill:#406f91; stroke:none;" d="M90 169L91 170L90 169M188 169L189 170L188 169z"/>
<path style="fill:#efc879; stroke:none;" d="M322 169L323 170L322 169z"/>
<path style="fill:#406f91; stroke:none;" d="M323 169L324 170L323 169z"/>
<path style="fill:#a28c7f; stroke:none;" d="M90.3333 170.667L90.6667 171.333L90.3333 170.667M112 170L113 171L112 170z"/>
<path style="fill:#406f91; stroke:none;" d="M186 170L187 171L186 170z"/>
<path style="fill:#efc879; stroke:none;" d="M187 170L188 171L187 170z"/>
<path style="fill:#a28c7f; stroke:none;" d="M324 170L325 171L324 170z"/>
<path style="fill:#406f91; stroke:none;" d="M325 170L326 171L325 170z"/>
<path style="fill:#efc879; stroke:none;" d="M112 171L113 172L112 171z"/>
<path style="fill:#a28c7f; stroke:none;" d="M184 171L185 172L184 171z"/>
<path style="fill:#efc879; stroke:none;" d="M185 171L186 172L185 171M326 171L327 172L326 171z"/>
<path style="fill:#406f91; stroke:none;" d="M327 171L328 172L327 171M179.667 172.333L180.333 172.667L179.667 172.333z"/>
<path style="fill:#a28c7f; stroke:none;" d="M181 172L182 173L181 172z"/>
<path style="fill:#efc879; stroke:none;" d="M182 172L183 173L182 172M329 172L330 173L329 172z"/>
<path style="fill:#a28c7f; stroke:none;" d="M330 172L331 173L330 172z"/>
<path style="fill:#406f91; stroke:none;" d="M331.667 172.333L332.333 172.667L331.667 172.333z"/>
<path style="fill:#a28c7f; stroke:none;" d="M167 173L167 192L168 192L167 173z"/>
<path style="fill:#406f91; stroke:none;" d="M344 173L344 194L345 194L344 173M113.333 174.667L113.667 175.333L113.333 174.667M89 175L90 176L89 175z"/>
<path style="fill:#a28c7f; stroke:none;" d="M89.3333 176.667L89.6667 177.333L89.3333 176.667M113 176L114 177L113 176z"/>
<path style="fill:#efc879; stroke:none;" d="M113 177L114 178L113 177z"/>
<path style="fill:#406f91; stroke:none;" d="M114.333 180.667L114.667 181.333L114.333 180.667M88 181L89 182L88 181z"/>
<path style="fill:#a28c7f; stroke:none;" d="M88.3333 182.667L88.6667 183.333L88.3333 182.667M114 182L115 183L114 182z"/>
<path style="fill:#406f91; stroke:none;" d="M87.3333 186.667L87.6667 187.333L87.3333 186.667M115 186L116 187L115 186z"/>
<path style="fill:#a28c7f; stroke:none;" d="M115.333 187.667L115.667 188.333L115.333 187.667M87.3333 188.667L87.6667 189.333L87.3333 188.667z"/>
<path style="fill:#406f91; stroke:none;" d="M86.3333 192.667L86.6667 193.333L86.3333 192.667M116 192L117 193L116 192M167.333 192.667L167.667 193.333L167.333 192.667z"/>
<path style="fill:#a28c7f; stroke:none;" d="M116.333 193.667L116.667 194.333L116.333 193.667M86 194L87 195L86 194z"/>
<path style="fill:#efc879; stroke:none;" d="M343 194L344 195L343 194M86 195L87 196L86 195z"/>
<path style="fill:#406f91; stroke:none;" d="M168 195L169 196L168 195M343 195L344 196L343 195M169 196L170 197L169 196z"/>
<path style="fill:#efc879; stroke:none;" d="M170 196L171 197L170 196M341 196L342 197L341 196z"/>
<path style="fill:#406f91; stroke:none;" d="M342 196L343 197L342 196M117.333 197.667L117.667 198.333L117.333 197.667M172.667 197.333L173.333 197.667L172.667 197.333z"/>
<path style="fill:#a28c7f; stroke:none;" d="M174 197L175 198L174 197z"/>
<path style="fill:#efc879; stroke:none;" d="M175 197L176 198L175 197z"/>
<path style="fill:#a28c7f; stroke:none;" d="M336.667 197.333L337.333 197.667L336.667 197.333z"/>
<path style="fill:#406f91; stroke:none;" d="M338.667 197.333L339.333 197.667L338.667 197.333M85.3333 198.667L85.6667 199.333L85.3333 198.667z"/>
<path style="fill:#a28c7f; stroke:none;" d="M177 198L178 199L177 198z"/>
<path style="fill:#efc879; stroke:none;" d="M333 198L334 199L333 198z"/>
<path style="fill:#a28c7f; stroke:none;" d="M334 198L335 199L334 198M117.333 199.667L117.667 200.333L117.333 199.667M179 199L180 200L179 199M332 199L333 200L332 199M85 200L86 201L85 200M180 200L181 201L180 200M331 200L332 201L331 200z"/>
<path style="fill:#efc879; stroke:none;" d="M85 201L86 202L85 201z"/>
<path style="fill:#a28c7f; stroke:none;" d="M181 201L182 202L181 201M330 201L331 202L330 201z"/>
<path style="fill:#efc879; stroke:none;" d="M182 202L183 203L182 202M329 202L330 203L329 202z"/>
<path style="fill:#406f91; stroke:none;" d="M118.333 203.667L118.667 204.333L118.333 203.667M182 203L183 204L182 203M329 203L330 204L329 203M84.3333 204.667L84.6667 205.333L84.3333 204.667z"/>
<path style="fill:#efc879; stroke:none;" d="M183 204L184 205L183 204M328 204L329 205L328 204z"/>
<path style="fill:#a28c7f; stroke:none;" d="M118.333 205.667L118.667 206.333L118.333 205.667M183 205L184 206L183 205M328 205L329 206L328 205M84 206L85 207L84 206z"/>
<path style="fill:#406f91; stroke:none;" d="M183 206L184 207L183 206z"/>
<path style="fill:#efc879; stroke:none;" d="M84 207L85 208L84 207M327.333 208.667L327.667 209.333L327.333 208.667z"/>
<path style="fill:#406f91; stroke:none;" d="M119.333 209.667L119.667 210.333L119.333 209.667z"/>
<path style="fill:#efc879; stroke:none;" d="M184.333 209.667L184.667 210.333L184.333 209.667z"/>
<path style="fill:#406f91; stroke:none;" d="M83.3333 210.667L83.6667 211.333L83.3333 210.667z"/>
<path style="fill:#a28c7f; stroke:none;" d="M327 210L327 213L328 213L327 210M119 211L120 212L119 211M184.333 211.667L184.667 212.333L184.333 211.667M83 212L84 213L83 212z"/>
<path style="fill:#efc879; stroke:none;" d="M119 212L120 213L119 212z"/>
<path style="fill:#406f91; stroke:none;" d="M184.333 213.667L184.667 214.333L184.333 213.667M327.333 213.667L327.667 214.333L327.333 213.667z"/>
<path style="fill:#a28c7f; stroke:none;" d="M83 216L84 217L83 216M119 216L120 217L119 216z"/>
<path style="fill:#efc879; stroke:none;" d="M326 216L327 217L326 216M185 217L186 218L185 217z"/>
<path style="fill:#a28c7f; stroke:none;" d="M326.333 217.667L326.667 218.333L326.333 217.667M185 218L186 219L185 218z"/>
<path style="fill:#406f91; stroke:none;" d="M185 219L186 220L185 219M326 219L327 220L326 219z"/>
<path style="fill:#efc879; stroke:none;" d="M186 221L187 222L186 221M325 221L326 222L325 221z"/>
<path style="fill:#a28c7f; stroke:none;" d="M186 222L187 223L186 222M325 222L326 223L325 222z"/>
<path style="fill:#406f91; stroke:none;" d="M186 223L187 224L186 223M325 223L326 224L325 223z"/>
<path style="fill:#efc879; stroke:none;" d="M324 224L325 225L324 224z"/>
<path style="fill:#a28c7f; stroke:none;" d="M187 225L188 226L187 225M324 225L325 226L324 225z"/>
<path style="fill:#406f91; stroke:none;" d="M187 226L188 227L187 226M324 226L325 227L324 226z"/>
<path style="fill:#a28c7f; stroke:none;" d="M188 228L189 229L188 228M323 228L324 229L323 228z"/>
<path style="fill:#406f91; stroke:none;" d="M188 229L189 230L188 229M323 229L324 230L323 229z"/>
<path style="fill:#efc879; stroke:none;" d="M189 230L190 231L189 230M322 230L323 231L322 230z"/>
<path style="fill:#a28c7f; stroke:none;" d="M189 231L190 232L189 231M322 231L323 232L322 231z"/>
<path style="fill:#efc879; stroke:none;" d="M321 232L322 233L321 232z"/>
<path style="fill:#a28c7f; stroke:none;" d="M190 233L191 234L190 233M321 233L322 234L321 233M191 235L192 236L191 235M320 235L321 236L320 235M192 237L193 238L192 237M319 237L320 238L319 237z"/>
<path style="fill:#efc879; stroke:none;" d="M318 238L319 239L318 238z"/>
<path style="fill:#a28c7f; stroke:none;" d="M193 239L194 240L193 239M318 239L319 240L318 239z"/>
<path style="fill:#efc879; stroke:none;" d="M317 240L318 241L317 240z"/>
<path style="fill:#406f91; stroke:none;" d="M194 241L195 242L194 241M317 241L318 242L317 241z"/>
<path style="fill:#a28c7f; stroke:none;" d="M195 242L196 243L195 242M316 242L317 243L316 242z"/>
<path style="fill:#efc879; stroke:none;" d="M315 243L316 244L315 243z"/>
<path style="fill:#406f91; stroke:none;" d="M196 244L197 245L196 244M315 244L316 245L315 244z"/>
<path style="fill:#a28c7f; stroke:none;" d="M197 245L198 246L197 245M314 245L315 246L314 245z"/>
<path style="fill:#efc879; stroke:none;" d="M198 246L199 247L198 246M313 246L314 247L313 246M312 247L313 248L312 247z"/>
<path style="fill:#406f91; stroke:none;" d="M199 248L200 249L199 248M312 248L313 249L312 248z"/>
<path style="fill:#a28c7f; stroke:none;" d="M200 249L201 250L200 249M311 249L312 250L311 249M201 250L202 251L201 250M310 250L311 251L310 250z"/>
<path style="fill:#efc879; stroke:none;" d="M202 251L203 252L202 251M309 251L310 252L309 251M203 252L204 253L203 252M308 252L309 253L308 252M204 253L205 254L204 253M307 253L308 254L307 253M205 254L206 255L205 254M306 254L307 255L306 254M206 255L207 256L206 255M305 255L306 256L305 255M207 256L208 257L207 256M304 256L305 257L304 256M208 257L209 258L208 257z"/>
<path style="fill:#a28c7f; stroke:none;" d="M303 257L304 258L303 257M209 258L210 259L209 258M302 258L303 259L302 258z"/>
<path style="fill:#406f91; stroke:none;" d="M210 259L211 260L210 259z"/>
<path style="fill:#a28c7f; stroke:none;" d="M301 259L302 260L301 259z"/>
<path style="fill:#406f91; stroke:none;" d="M211 260L212 261L211 260z"/>
<path style="fill:#efc879; stroke:none;" d="M299 260L300 261L299 260z"/>
<path style="fill:#406f91; stroke:none;" d="M300 260L301 261L300 260z"/>
<path style="fill:#efc879; stroke:none;" d="M213 261L214 262L213 261z"/>
<path style="fill:#a28c7f; stroke:none;" d="M298 261L299 262L298 261M214 262L215 263L214 262M297 262L298 263L297 262z"/>
<path style="fill:#efc879; stroke:none;" d="M216 263L217 264L216 263M295 263L296 264L295 263z"/>
<path style="fill:#406f91; stroke:none;" d="M296 263L297 264L296 263z"/>
<path style="fill:#a28c7f; stroke:none;" d="M217 264L218 265L217 264M294 264L295 265L294 264z"/>
<path style="fill:#efc879; stroke:none;" d="M219 265L220 266L219 265z"/>
<path style="fill:#a28c7f; stroke:none;" d="M292 265L293 266L292 265z"/>
<path style="fill:#406f91; stroke:none;" d="M220 266L221 267L220 266z"/>
<path style="fill:#efc879; stroke:none;" d="M221 266L222 267L221 266M290 266L291 267L290 266z"/>
<path style="fill:#406f91; stroke:none;" d="M291 266L292 267L291 266M222 267L223 268L222 267z"/>
<path style="fill:#efc879; stroke:none;" d="M288 267L289 268L288 267z"/>
<path style="fill:#406f91; stroke:none;" d="M289 267L290 268L289 267M224 268L225 269L224 268z"/>
<path style="fill:#efc879; stroke:none;" d="M225 268L226 269L225 268M286 268L287 269L286 268z"/>
<path style="fill:#406f91; stroke:none;" d="M287 268L288 269L287 268M226 269L227 270L226 269z"/>
<path style="fill:#efc879; stroke:none;" d="M227 269L228 270L227 269M284 269L285 270L284 269z"/>
<path style="fill:#406f91; stroke:none;" d="M285 269L286 270L285 269M228 270L229 271L228 270z"/>
<path style="fill:#a28c7f; stroke:none;" d="M229 270L230 271L229 270M282 270L283 271L282 270z"/>
<path style="fill:#406f91; stroke:none;" d="M283 270L284 271L283 270M231 271L232 272L231 271z"/>
<path style="fill:#efc879; stroke:none;" d="M232 271L233 272L232 271z"/>
<path style="fill:#a28c7f; stroke:none;" d="M279 271L280 272L279 271z"/>
<path style="fill:#406f91; stroke:none;" d="M280 271L281 272L280 271M234 272L235 273L234 272z"/>
<path style="fill:#a28c7f; stroke:none;" d="M235 272L236 273L235 272M276 272L277 273L276 272z"/>
<path style="fill:#406f91; stroke:none;" d="M277 272L278 273L277 272M237 273L238 274L237 273z"/>
<path style="fill:#a28c7f; stroke:none;" d="M238 273L239 274L238 273z"/>
<path style="fill:#efc879; stroke:none;" d="M239 273L240 274L239 273M272 273L273 274L272 273z"/>
<path style="fill:#a28c7f; stroke:none;" d="M273 273L274 274L273 273z"/>
<path style="fill:#406f91; stroke:none;" d="M274 273L275 274L274 273M241.667 274.333L242.333 274.667L241.667 274.333z"/>
<path style="fill:#a28c7f; stroke:none;" d="M243 274L244 275L243 274z"/>
<path style="fill:#efc879; stroke:none;" d="M244 274L245 275L244 274M266 274L267 275L266 274z"/>
<path style="fill:#a28c7f; stroke:none;" d="M267.667 274.333L268.333 274.667L267.667 274.333z"/>
<path style="fill:#406f91; stroke:none;" d="M269.667 274.333L270.333 274.667L269.667 274.333M248.667 275.333L249.333 275.667L248.667 275.333z"/>
<path style="fill:#a28c7f; stroke:none;" d="M250 275L250 276L262 276L250 275z"/>
<path style="fill:#406f91; stroke:none;" d="M262.667 275.333L263.333 275.667L262.667 275.333M218 282L218 293L219 293L220 282L218 282M292 282L293 293L294 293L292 282z"/>
<path style="fill:#fcdcd1; stroke:none;" d="M219 283C219 292.816 217.233 315.899 224.728 323.4C227.544 326.219 233.34 325.774 237 326.166C248.959 327.446 262.04 328.052 274 326.424C278.074 325.869 285.178 326.4 287.86 322.683C294.466 313.529 293 293.752 293 283C266.019 292.128 245.981 292.128 219 283z"/>
<path style="fill:#efc879; stroke:none;" d="M220 283L221 284L220 283z"/>
<path style="fill:#406f91; stroke:none;" d="M221 283L222 284L221 283M290 283L291 284L290 283z"/>
<path style="fill:#efc879; stroke:none;" d="M291 283L292 284L291 283z"/>
<path style="fill:#a28c7f; stroke:none;" d="M223 284L224 285L223 284M288 284L289 285L288 284z"/>
<path style="fill:#efc879; stroke:none;" d="M225 285L226 286L225 285z"/>
<path style="fill:#406f91; stroke:none;" d="M226 285L227 286L226 285M285 285L286 286L285 285z"/>
<path style="fill:#efc879; stroke:none;" d="M286 285L287 286L286 285z"/>
<path style="fill:#a28c7f; stroke:none;" d="M228 286L229 287L228 286z"/>
<path style="fill:#406f91; stroke:none;" d="M229 286L230 287L229 286M282 286L283 287L282 286z"/>
<path style="fill:#a28c7f; stroke:none;" d="M283 286L284 287L283 286z"/>
<path style="fill:#efc879; stroke:none;" d="M231 287L232 288L231 287z"/>
<path style="fill:#a28c7f; stroke:none;" d="M232 287L233 288L232 287z"/>
<path style="fill:#406f91; stroke:none;" d="M233 287L234 288L233 287M278 287L279 288L278 287z"/>
<path style="fill:#a28c7f; stroke:none;" d="M279 287L280 288L279 287z"/>
<path style="fill:#efc879; stroke:none;" d="M280 287L281 288L280 287z"/>
<path style="fill:#a28c7f; stroke:none;" d="M235 288L236 289L235 288z"/>
<path style="fill:#406f91; stroke:none;" d="M236.667 288.333L237.333 288.667L236.667 288.333M274.667 288.333L275.333 288.667L274.667 288.333z"/>
<path style="fill:#a28c7f; stroke:none;" d="M276 288L277 289L276 288z"/>
<path style="fill:#efc879; stroke:none;" d="M239 289L240 290L239 289z"/>
<path style="fill:#a28c7f; stroke:none;" d="M240 289L241 290L240 289z"/>
<path style="fill:#406f91; stroke:none;" d="M241.667 289.333L242.333 289.667L241.667 289.333M269.667 289.333L270.333 289.667L269.667 289.333z"/>
<path style="fill:#a28c7f; stroke:none;" d="M271 289L272 290L271 289z"/>
<path style="fill:#efc879; stroke:none;" d="M272 289L273 290L272 289M245.667 290.333L246.333 290.667L245.667 290.333z"/>
<path style="fill:#a28c7f; stroke:none;" d="M247 290L247 291L250 291L247 290z"/>
<path style="fill:#406f91; stroke:none;" d="M250 290L250 291L262 291L250 290z"/>
<path style="fill:#a28c7f; stroke:none;" d="M262 290L262 291L265 291L262 290z"/>
<path style="fill:#efc879; stroke:none;" d="M265.667 290.333L266.333 290.667L265.667 290.333M219.333 298.667L219.667 299.333L219.333 298.667M292.333 298.667L292.667 299.333L292.333 298.667z"/>
<path style="fill:#a28c7f; stroke:none;" d="M219 300L219 303L220 303L219 300M292 300L292 303L293 303L292 300z"/>
<path style="fill:#406f91; stroke:none;" d="M203 301C188.468 310.616 167.117 319.549 156 333L231 377L210.344 332L203 301M308 301L298.575 341L281 377L356 333C345.929 320.815 322.514 307.262 308 301M219.333 303.667L219.667 304.333L219.333 303.667M292.333 303.667L292.667 304.333L292.333 303.667z"/>
<path style="fill:#efc879; stroke:none;" d="M220 307L221 308L220 307M291 307L292 308L291 307z"/>
<path style="fill:#a28c7f; stroke:none;" d="M220.333 308.667L220.667 309.333L220.333 308.667M291.333 308.667L291.667 309.333L291.333 308.667z"/>
<path style="fill:#406f91; stroke:none;" d="M220.333 310.667L220.667 311.333L220.333 310.667M291.333 310.667L291.667 311.333L291.333 310.667z"/>
<path style="fill:#efc879; stroke:none;" d="M221 313L222 314L221 313M290 313L291 314L290 313z"/>
<path style="fill:#a28c7f; stroke:none;" d="M221.333 314.667L221.667 315.333L221.333 314.667M290.333 314.667L290.667 315.333L290.333 314.667z"/>
<path style="fill:#406f91; stroke:none;" d="M221 316L222 317L221 316M290 316L291 317L290 316z"/>
<path style="fill:#efc879; stroke:none;" d="M222 318L223 319L222 318M289 318L290 319L289 318z"/>
<path style="fill:#a28c7f; stroke:none;" d="M222 319L223 320L222 319M289 319L290 320L289 319z"/>
<path style="fill:#406f91; stroke:none;" d="M222 320L223 321L222 320M289 320L290 321L289 320z"/>
<path style="fill:#efc879; stroke:none;" d="M223 322L224 323L223 322M288 322L289 323L288 322z"/>
<path style="fill:#a28c7f; stroke:none;" d="M223 323L224 324L223 323M288 323L289 324L288 323z"/>
<path style="fill:#406f91; stroke:none;" d="M223 324L224 325L223 324z"/>
<path style="fill:#efc879; stroke:none;" d="M224 324L225 325L224 324M287 324L288 325L287 324z"/>
<path style="fill:#406f91; stroke:none;" d="M288 324L289 325L288 324M227 325L228 326L227 325z"/>
<path style="fill:#a28c7f; stroke:none;" d="M228.667 325.333L229.333 325.667L228.667 325.333z"/>
<path style="fill:#efc879; stroke:none;" d="M230 325L231 326L230 325M281 325L282 326L281 325z"/>
<path style="fill:#a28c7f; stroke:none;" d="M282.667 325.333L283.333 325.667L282.667 325.333z"/>
<path style="fill:#406f91; stroke:none;" d="M284 325L285 326L284 325M234.667 326.333L235.333 326.667L234.667 326.333z"/>
<path style="fill:#a28c7f; stroke:none;" d="M236.667 326.333L237.333 326.667L236.667 326.333z"/>
<path style="fill:#efc879; stroke:none;" d="M238.667 326.333L239.333 326.667L238.667 326.333M273 326L274 327L273 326z"/>
<path style="fill:#a28c7f; stroke:none;" d="M274.667 326.333L275.333 326.667L274.667 326.333z"/>
<path style="fill:#406f91; stroke:none;" d="M276.667 326.333L277.333 326.667L276.667 326.333M244 327L244 328L248 328L244 327z"/>
<path style="fill:#a28c7f; stroke:none;" d="M248 327L248 328L264 328L248 327z"/>
<path style="fill:#406f91; stroke:none;" d="M264 327L264 328L268 328L264 327M118 497C118 486.987 116.646 475.891 118.214 466.001C118.821 462.17 121.553 457.629 126.003 457.828C130.281 458.019 132.612 462.221 132.941 466C133.829 476.177 133 486.782 133 497L379 497C379 488.9 374.387 458.744 385.997 457.662C390.532 457.239 393.187 462.204 393.786 466C395.349 475.894 394 486.984 394 497C406.494 497 429.164 501.426 438.786 491.786C447.783 482.773 444 462.596 444 451C444 414.072 448.266 371.716 409 352.373C400.03 347.955 382.044 340.573 372 341.448C364.208 342.128 354.688 350.543 348 354.424C328.572 365.7 309.272 377.26 290 388.8C281.487 393.898 266.077 407.689 256 407.562C247.582 407.456 236.051 397.231 229 393C208.059 380.434 186.943 368.166 166 355.6C158.871 351.323 147.573 341.276 139 341.433C109.681 341.968 78.9683 363.176 70.7207 391C67.0058 403.532 69.0546 416.239 67.9414 429C67.441 434.735 62.6939 435.045 60.6034 439.414C58.9909 442.785 58.9382 453.368 61.027 456.505C62.7764 459.133 65.9762 459.889 67.2577 463.044C71.5039 473.499 64.3362 485.048 75.0432 493.581C84.5809 501.182 106.383 497 118 497z"/>
<path style="fill:#a28c7f; stroke:none;" d="M229 341L230 342L229 341z"/>
<path style="fill:#fcdcd1; stroke:none;" d="M230 341C233.97 357.715 247.082 371.126 255 386L257 386C264.918 371.126 278.03 357.714 282 341C265.248 344.11 246.752 344.11 230 341z"/>
<path style="fill:#efc879; stroke:none;" d="M232 341L233 342L232 341z"/>
<path style="fill:#a28c7f; stroke:none;" d="M233.667 341.333L234.333 341.667L233.667 341.333z"/>
<path style="fill:#406f91; stroke:none;" d="M235 341L235 342L238 342L235 341M274 341L274 342L277 342L274 341z"/>
<path style="fill:#a28c7f; stroke:none;" d="M277.667 341.333L278.333 341.667L277.667 341.333z"/>
<path style="fill:#efc879; stroke:none;" d="M279 341L280 342L279 341z"/>
<path style="fill:#a28c7f; stroke:none;" d="M282 341L283 342L282 341z"/>
<path style="fill:#efc879; stroke:none;" d="M242.667 342.333L243.333 342.667L242.667 342.333z"/>
<path style="fill:#a28c7f; stroke:none;" d="M244 342L244 343L249 343L244 342z"/>
<path style="fill:#406f91; stroke:none;" d="M249 342L249 343L263 343L249 342z"/>
<path style="fill:#a28c7f; stroke:none;" d="M263 342L263 343L268 343L263 342z"/>
<path style="fill:#efc879; stroke:none;" d="M268.667 342.333L269.333 342.667L268.667 342.333z"/>
<path style="fill:#a28c7f; stroke:none;" d="M230 343L231 344L230 343M281 343L282 344L281 343z"/>
<path style="fill:#406f91; stroke:none;" d="M230 344L231 345L230 344M281 344L282 345L281 344M231 346L232 347L231 346M280 346L281 347L280 346M232 348L233 349L232 348M279 348L280 349L279 348M233 350L234 351L233 350M278 350L279 351L278 350z"/>
<path style="fill:#a28c7f; stroke:none;" d="M234 352L235 353L234 352M277 352L278 353L277 352z"/>
<path style="fill:#406f91; stroke:none;" d="M235 354L236 355L235 354M276 354L277 355L276 354M236 356L237 357L236 356M275 356L276 357L275 356z"/>
<path style="fill:#efc879; stroke:none;" d="M237 357L238 358L237 357M274 357L275 358L274 357z"/>
<path style="fill:#406f91; stroke:none;" d="M274 358L275 359L274 358z"/>
<path style="fill:#a28c7f; stroke:none;" d="M238 359L239 360L238 359M273 359L274 360L273 359z"/>
<path style="fill:#406f91; stroke:none;" d="M239 361L240 362L239 361M272 361L273 362L272 361z"/>
<path style="fill:#efc879; stroke:none;" d="M240 362L241 363L240 362M271 362L272 363L271 362z"/>
<path style="fill:#a28c7f; stroke:none;" d="M241 364L242 365L241 364M270 364L271 365L270 364z"/>
<path style="fill:#406f91; stroke:none;" d="M242 366L243 367L242 366M269 366L270 367L269 366z"/>
<path style="fill:#a28c7f; stroke:none;" d="M243 367L244 368L243 367M268 367L269 368L268 367z"/>
<path style="fill:#406f91; stroke:none;" d="M244 369L245 370L244 369M267 369L268 370L267 369z"/>
<path style="fill:#a28c7f; stroke:none;" d="M245 370L246 371L245 370M266 370L267 371L266 370z"/>
<path style="fill:#406f91; stroke:none;" d="M246 372L247 373L246 372M265 372L266 373L265 372z"/>
<path style="fill:#a28c7f; stroke:none;" d="M247 373L248 374L247 373M264 373L265 374L264 373z"/>
<path style="fill:#406f91; stroke:none;" d="M248 375L249 376L248 375M263 375L264 376L263 375z"/>
<path style="fill:#efc879; stroke:none;" d="M249 376L250 377L249 376M262 376L263 377L262 376z"/>
<path style="fill:#406f91; stroke:none;" d="M250 378L251 379L250 378M261 378L262 379L261 378z"/>
<path style="fill:#efc879; stroke:none;" d="M251 379L252 380L251 379M260 379L261 380L260 379z"/>
<path style="fill:#a28c7f; stroke:none;" d="M252 381L253 382L252 381M259 381L260 382L259 381z"/>
<path style="fill:#406f91; stroke:none;" d="M253 383L254 384L253 383M258 383L259 384L258 383z"/>
<path style="fill:#a28c7f; stroke:none;" d="M254 384L255 385L254 384M257 384L258 385L257 384z"/>
<path style="fill:#406f91; stroke:none;" d="M255.667 386.333L256.333 386.667L255.667 386.333z"/>
</svg>
